<?xml version="1.0" standalone="no"?>
<!DOCTYPE svg PUBLIC "-//W3C//DTD SVG 20010904//EN"
 "http://www.w3.org/TR/2001/REC-SVG-20010904/DTD/svg10.dtd">
<svg version="1.0" xmlns="http://www.w3.org/2000/svg"
 width="70.000000pt" height="70.000000pt" viewBox="0 0 70.000000 70.000000"
 preserveAspectRatio="xMidYMid meet">
<metadata>
Created by potrace 1.11, written by Peter Selinger 2001-2013
</metadata>
<g transform="translate(0.000000,70.000000) scale(0.100000,-0.100000)"
fill="#000000" stroke="none">
<path d="M171 609 c-39 -17 -67 -45 -73 -69 -2 -8 -7 -18 -11 -21 -14 -10 -14
-112 0 -149 29 -74 94 -113 179 -107 33 3 60 10 65 18 5 8 9 10 9 6 0 -4 9 -3
21 3 16 9 18 14 9 25 -9 11 -17 10 -46 -7 -46 -27 -124 -21 -159 12 l-25 24
21 22 c31 33 30 116 -1 149 -19 21 -21 27 -10 40 36 43 121 58 170 30 32 -19
40 -18 40 1 0 39 -121 54 -189 23z"/>
<path d="M183 570 c-18 -11 -33 -24 -33 -29 0 -17 63 -62 84 -60 37 2 45 -1
56 -21 14 -26 -21 -64 -50 -55 -13 4 -31 -5 -57 -28 l-37 -35 34 -21 c96 -58
213 11 213 125 0 50 -38 114 -79 133 -38 17 -95 13 -131 -9z"/>
<path d="M469 511 c-23 -23 -29 -38 -29 -71 0 -90 99 -133 161 -71 62 62 20
171 -66 171 -27 0 -44 -8 -66 -29z m115 -43 c6 -18 6 -38 0 -55 -8 -24 -15
-28 -49 -28 -35 0 -40 3 -48 30 -5 19 -4 41 2 58 10 25 15 28 48 25 31 -2 39
-8 47 -30z"/>
<path d="M27 120 c18 -71 38 -78 51 -17 l9 42 8 -42 c4 -25 13 -43 21 -43 7 0
18 19 24 43 6 23 13 50 16 60 3 11 0 17 -9 17 -10 0 -18 -15 -23 -42 l-7 -43
-9 43 c-5 24 -15 42 -23 42 -8 0 -16 -17 -21 -42 l-7 -43 -9 43 c-5 24 -15 42
-22 42 -11 0 -11 -11 1 -60z"/>
<path d="M260 120 c0 -59 0 -60 28 -60 15 0 33 5 40 12 28 28 2 88 -33 74 -10
-4 -15 1 -15 14 0 11 -4 20 -10 20 -6 0 -10 -27 -10 -60z m55 -15 c0 -10 -5
-20 -11 -22 -13 -4 -27 24 -18 38 9 15 29 4 29 -16z"/>
<path d="M400 120 l0 -60 38 0 c47 0 62 14 62 60 0 46 -15 60 -62 60 l-38 0 0
-60z m74 18 c13 -21 -2 -51 -28 -56 -13 -3 -16 5 -16 38 0 33 3 41 16 38 9 -2
22 -11 28 -20z"/>
<path d="M182 138 c-7 -7 -12 -21 -12 -33 0 -41 45 -60 71 -29 11 13 9 14 -13
9 -15 -4 -29 -2 -32 4 -5 7 3 11 18 11 19 0 26 5 26 19 0 28 -37 40 -58 19z"/>
<path d="M532 138 c-7 -7 -12 -21 -12 -33 0 -41 45 -60 71 -29 11 13 9 14 -13
9 -15 -4 -29 -2 -32 4 -5 7 3 11 18 11 19 0 26 5 26 19 0 28 -37 40 -58 19z"/>
<path d="M617 105 c18 -55 36 -57 51 -6 14 46 15 51 3 51 -5 0 -14 -12 -19
-27 l-10 -28 -7 28 c-4 15 -13 27 -20 27 -11 0 -11 -9 2 -45z"/>
</g>
</svg>
